<?xml version="1.0" encoding="UTF-8"?>
<svg id="_Шар_1" data-name="Шар 1" xmlns="http://www.w3.org/2000/svg" viewBox="0 0 797.1 558.35">
  <defs>
    <style>
      .cls-1 {
        fill: #0a2924;
      }
    </style>
  </defs>
  <path class="cls-1" d="M528.89,428.27c-1.71.34-2.73-.47-4.15-1.16-5.34-2.67-14.61-10.32-19.55-14.41-34.56-28.51-62.18-69.9-84.46-109.15l-.4-157.27c-1.59-20.82-1.36-41.76-5.29-62.39-6.31-33.79-22.85-64.69-58.6-68.86l-.06-12.94,260.72-.04c64.97,1.71,145.17,23.2,150.97,104.35,4.6,64.43-38.59,101.64-94.24,114.35l-.06,2.85c61.27,10.43,118.62,48.79,122.94,119.29,8.47,139.38-125.73,221.38-245.43,215.12-162.5-8.5-222.53-145.13-302.73-267.8-39.16-59.85-78.32-123.23-119.48-181.25-2.5-3.5-17.56-21.5-17.56-21.5,3.81,93.38-5.8,203.7,1.93,296.37,3.81,45.99,19.33,89,69.57,92.34-.63,4.43,1.48,10.52-1.48,13.97H0v-13.97c10.12-.65,20.97-3.75,29.44-9.57,27.79-18.98,27.57-68.78,28.7-99.71,2.84-74.85,2.56-150.57.91-225.54-.63-27.86,2.27-72.34-10.63-96.66C38.71,26.41,19.21,18.05,0,16.07V2.09c140.51-6.96,198.82-.04,249.52,75.53,63.77,95.08,123.74,195.4,189.44,288.66,38.59,54.8,83.84,111.08,156.88,99.63,45.7-7.17,73.04-43.15,77.87-90.07,5.85-56.01-12.68-114.39-67.87-132.49-19.21-6.31-52.75-8.94-72.58-5.67-1.76.29-3.18,1.03-4.38,2.43v188.15ZM528.89,40.52v167.68c.85,1.43,1.93,1.38,3.3,1.55,21.66,2.67,58.83-.05,78.95-9.27,56.55-25.98,57.01-125.3,6.08-156.64-20.69-12.71-56.67-16.23-79.97-11.55-5.46,1.1-7.56,1.82-8.36,8.22h0Z"/>
</svg>